<svg width="16" height="16" viewBox="0 0 16 16" fill="none" xmlns="http://www.w3.org/2000/svg">
<path d="M15.4434 0.90332C15.7656 0.991211 16 1.25488 16 1.57715C16 9.10645 9.90625 15.1709 2.40625 15.1709C2.05469 15.1709 1.79102 14.9658 1.70312 14.6436L1 11.5967C0.941406 11.2744 1.08789 10.9229 1.41016 10.7764L4.69141 9.37012C4.98438 9.25293 5.30664 9.34082 5.51172 9.5752L6.97656 11.3623C9.26172 10.2783 11.1074 8.40332 12.1621 6.17676L10.375 4.71191C10.1406 4.50684 10.0527 4.18457 10.1699 3.8916L11.5762 0.610352C11.7227 0.288086 12.0742 0.112305 12.3965 0.200195L15.4434 0.90332Z" fill="#8A959E"/>
</svg>
