<svg width="76" height="68" viewBox="0 0 76 68" fill="none" xmlns="http://www.w3.org/2000/svg">
<g filter="url(#filter0_dd_15_7907)">
<rect x="19.9902" y="8" width="44" height="44" rx="22" fill="white" shape-rendering="crispEdges"/>
<rect x="20.4902" y="8.5" width="43" height="43" rx="21.5" stroke="#DEDEDE" shape-rendering="crispEdges"/>
<path d="M39.7637 21.2305C39.8939 21.3477 39.959 21.4941 39.959 21.6699C39.959 21.8457 39.9004 21.9922 39.7832 22.1094L37.6348 24.2578H46.3457L44.1973 22.1094C44.0801 21.9922 44.0215 21.8457 44.0215 21.6699C44.0215 21.4941 44.0866 21.3477 44.2168 21.2305C44.334 21.1003 44.4772 21.0352 44.6465 21.0352C44.8158 21.0352 44.9655 21.1003 45.0957 21.2305L48.1035 24.2578H48.4746C48.722 24.2578 48.9954 24.2741 49.2949 24.3066C49.5944 24.3392 49.8743 24.4401 50.1348 24.6094C50.4212 24.8047 50.6296 25.0651 50.7598 25.3906C50.89 25.7161 50.9551 26.1003 50.9551 26.543C50.9551 27.0247 50.89 27.4414 50.7598 27.793C50.6296 28.1445 50.4082 28.4115 50.0957 28.5938C50.0176 28.6328 49.9395 28.6686 49.8613 28.7012C49.7832 28.7337 49.7051 28.7565 49.627 28.7695L48.2793 35.7422C48.2142 36.1328 48.1165 36.5299 47.9863 36.9336C47.8561 37.3372 47.6413 37.6953 47.3418 38.0078C47.0293 38.3333 46.6322 38.5742 46.1504 38.7305C45.6686 38.8867 45.0827 38.9648 44.3926 38.9648H39.373C38.722 38.9648 38.1589 38.8835 37.6836 38.7207C37.2083 38.5579 36.8079 38.3138 36.4824 37.9883C36.1699 37.6628 35.9388 37.2949 35.7891 36.8848C35.6393 36.4746 35.5319 36.0612 35.4668 35.6445L34.3535 28.7695C34.2754 28.7435 34.1973 28.7174 34.1191 28.6914C34.041 28.6654 33.9629 28.6328 33.8848 28.5938C33.5723 28.4115 33.3509 28.1445 33.2207 27.793C33.0905 27.4414 33.0254 27.0247 33.0254 26.543C33.0254 26.1003 33.0905 25.7161 33.2207 25.3906C33.3509 25.0651 33.5592 24.8047 33.8457 24.6094C34.1061 24.4401 34.3861 24.3392 34.6855 24.3066C34.985 24.2741 35.2585 24.2578 35.5059 24.2578H35.877L38.8848 21.2305C39.015 21.1003 39.1647 21.0352 39.334 21.0352C39.5033 21.0352 39.6465 21.1003 39.7637 21.2305ZM35.623 28.8281L36.6973 35.4297C36.7624 35.8203 36.847 36.1523 36.9512 36.4258C37.0553 36.6992 37.1986 36.9271 37.3809 37.1094C37.5501 37.2786 37.7878 37.4219 38.0938 37.5391C38.3997 37.6562 38.8262 37.7148 39.373 37.7148H44.3926C45.0046 37.7148 45.4635 37.6562 45.7695 37.5391C46.0755 37.4219 46.3001 37.2917 46.4434 37.1484C46.5996 36.9792 46.7233 36.7643 46.8145 36.5039C46.9056 36.2435 46.9902 35.9115 47.0684 35.5078L48.3379 28.8281H35.623ZM34.5488 25.6445C34.4967 25.6836 34.4382 25.7585 34.373 25.8691C34.3079 25.9798 34.2754 26.2044 34.2754 26.543C34.2754 26.9596 34.3112 27.2233 34.3828 27.334C34.4544 27.4447 34.4967 27.5 34.5098 27.5C34.5358 27.513 34.5716 27.526 34.6172 27.5391C34.6628 27.5521 34.7311 27.5651 34.8223 27.5781C34.9004 27.5781 34.9753 27.5781 35.0469 27.5781C35.1185 27.5781 35.1999 27.5781 35.291 27.5781C35.3301 27.5781 35.3659 27.5781 35.3984 27.5781C35.431 27.5781 35.4668 27.5781 35.5059 27.5781H48.4746C48.5137 27.5781 48.5495 27.5781 48.582 27.5781C48.6146 27.5781 48.6504 27.5781 48.6895 27.5781C48.7806 27.5781 48.862 27.5781 48.9336 27.5781C49.0052 27.5781 49.0801 27.5781 49.1582 27.5781C49.2493 27.5651 49.3177 27.5521 49.3633 27.5391C49.4089 27.526 49.4447 27.513 49.4707 27.5C49.4837 27.5 49.526 27.4447 49.5977 27.334C49.6693 27.2233 49.7051 26.9596 49.7051 26.543C49.7051 26.2044 49.6725 25.9798 49.6074 25.8691C49.5423 25.7585 49.4837 25.6836 49.4316 25.6445C49.3535 25.5924 49.2396 25.5566 49.0898 25.5371C48.9401 25.5176 48.735 25.5078 48.4746 25.5078H35.5059C35.2454 25.5078 35.0404 25.5176 34.8906 25.5371C34.7409 25.5566 34.627 25.5924 34.5488 25.6445ZM40.1152 31.0352C40.2975 31.0352 40.4473 31.097 40.5645 31.2207C40.6816 31.3444 40.7402 31.4909 40.7402 31.6602V34.6289C40.7402 34.7982 40.6816 34.9447 40.5645 35.0684C40.4473 35.1921 40.2975 35.2539 40.1152 35.2539C39.946 35.2539 39.7995 35.1921 39.6758 35.0684C39.5521 34.9447 39.4902 34.7982 39.4902 34.6289V31.6602C39.4902 31.4909 39.5521 31.3444 39.6758 31.2207C39.7995 31.097 39.946 31.0352 40.1152 31.0352ZM43.9629 31.0352C44.1322 31.0352 44.2786 31.097 44.4023 31.2207C44.526 31.3444 44.5879 31.4909 44.5879 31.6602V34.6289C44.5879 34.7982 44.526 34.9447 44.4023 35.0684C44.2786 35.1921 44.1322 35.2539 43.9629 35.2539C43.7806 35.2539 43.6309 35.1921 43.5137 35.0684C43.3965 34.9447 43.3379 34.7982 43.3379 34.6289V31.6602C43.3379 31.4909 43.3965 31.3444 43.5137 31.2207C43.6309 31.097 43.7806 31.0352 43.9629 31.0352Z" fill="black"/>
</g>
<defs>
<filter id="filter0_dd_15_7907" x="7.99023" y="0" width="68" height="68" filterUnits="userSpaceOnUse" color-interpolation-filters="sRGB">
<feFlood flood-opacity="0" result="BackgroundImageFix"/>
<feColorMatrix in="SourceAlpha" type="matrix" values="0 0 0 0 0 0 0 0 0 0 0 0 0 0 0 0 0 0 127 0" result="hardAlpha"/>
<feOffset dy="4"/>
<feGaussianBlur stdDeviation="6"/>
<feComposite in2="hardAlpha" operator="out"/>
<feColorMatrix type="matrix" values="0 0 0 0 0 0 0 0 0 0 0 0 0 0 0 0 0 0 0.05 0"/>
<feBlend mode="normal" in2="BackgroundImageFix" result="effect1_dropShadow_15_7907"/>
<feColorMatrix in="SourceAlpha" type="matrix" values="0 0 0 0 0 0 0 0 0 0 0 0 0 0 0 0 0 0 127 0" result="hardAlpha"/>
<feOffset dy="1"/>
<feGaussianBlur stdDeviation="1"/>
<feComposite in2="hardAlpha" operator="out"/>
<feColorMatrix type="matrix" values="0 0 0 0 0 0 0 0 0 0 0 0 0 0 0 0 0 0 0.08 0"/>
<feBlend mode="normal" in2="effect1_dropShadow_15_7907" result="effect2_dropShadow_15_7907"/>
<feBlend mode="normal" in="SourceGraphic" in2="effect2_dropShadow_15_7907" result="shape"/>
</filter>
</defs>
</svg>
