<svg width="15" height="12" viewBox="0 0 15 12" fill="none" xmlns="http://www.w3.org/2000/svg">
<path d="M13.5938 0.0458984C14.3555 0.0458984 15 0.69043 15 1.45215V9.88965C15 10.6807 14.3555 11.2959 13.5938 11.2959H1.40625C0.615234 11.2959 0 10.6807 0 9.88965V1.45215C0 0.69043 0.615234 0.0458984 1.40625 0.0458984H13.5938ZM13.5938 1.45215H1.40625V2.65332C2.05078 3.20996 3.10547 4.03027 5.33203 5.78809C5.83008 6.16895 6.79688 7.10645 7.5 7.07715C8.17383 7.10645 9.14062 6.16895 9.63867 5.78809C11.8652 4.03027 12.9199 3.20996 13.5938 2.65332V1.45215ZM1.40625 9.88965H13.5938V4.46973C12.9199 4.99707 11.9531 5.75879 10.5176 6.90137C9.84375 7.39941 8.73047 8.5127 7.5 8.4834C6.24023 8.5127 5.09766 7.39941 4.45312 6.90137C3.01758 5.75879 2.05078 4.99707 1.40625 4.46973V9.88965Z" fill="#8A959E"/>
</svg>
