<svg width="36" height="36" viewBox="0 0 36 36" fill="none" xmlns="http://www.w3.org/2000/svg">
<rect x="1" y="1.2959" width="34" height="34" rx="17" stroke="#8A8F9A"/>
<path d="M18 14.2021C19.9688 14.2021 21.5938 15.8271 21.5938 17.7959C21.5938 19.7959 19.9688 21.3896 18 21.3896C16 21.3896 14.4062 19.7959 14.4062 17.7959C14.4062 15.8271 16 14.2021 18 14.2021ZM18 20.1396C19.2812 20.1396 20.3125 19.1084 20.3125 17.7959C20.3125 16.5146 19.2812 15.4834 18 15.4834C16.6875 15.4834 15.6562 16.5146 15.6562 17.7959C15.6562 19.1084 16.7188 20.1396 18 20.1396ZM22.5625 14.0771C22.5625 14.5459 22.1875 14.9209 21.7188 14.9209C21.25 14.9209 20.875 14.5459 20.875 14.0771C20.875 13.6084 21.25 13.2334 21.7188 13.2334C22.1875 13.2334 22.5625 13.6084 22.5625 14.0771ZM24.9375 14.9209C25 16.0771 25 19.5459 24.9375 20.7021C24.875 21.8271 24.625 22.7959 23.8125 23.6396C23 24.4521 22 24.7021 20.875 24.7646C19.7188 24.8271 16.25 24.8271 15.0938 24.7646C13.9688 24.7021 13 24.4521 12.1562 23.6396C11.3438 22.7959 11.0938 21.8271 11.0312 20.7021C10.9688 19.5459 10.9688 16.0771 11.0312 14.9209C11.0938 13.7959 11.3438 12.7959 12.1562 11.9834C13 11.1709 13.9688 10.9209 15.0938 10.8584C16.25 10.7959 19.7188 10.7959 20.875 10.8584C22 10.9209 23 11.1709 23.8125 11.9834C24.625 12.7959 24.875 13.7959 24.9375 14.9209ZM23.4375 21.9209C23.8125 21.0146 23.7188 18.8271 23.7188 17.7959C23.7188 16.7959 23.8125 14.6084 23.4375 13.6709C23.1875 13.0771 22.7188 12.5771 22.125 12.3584C21.1875 11.9834 19 12.0771 18 12.0771C16.9688 12.0771 14.7812 11.9834 13.875 12.3584C13.25 12.6084 12.7812 13.0771 12.5312 13.6709C12.1562 14.6084 12.25 16.7959 12.25 17.7959C12.25 18.8271 12.1562 21.0146 12.5312 21.9209C12.7812 22.5459 13.25 23.0146 13.875 23.2646C14.7812 23.6396 16.9688 23.5459 18 23.5459C19 23.5459 21.1875 23.6396 22.125 23.2646C22.7188 23.0146 23.2188 22.5459 23.4375 21.9209Z" fill="#8A8F9A"/>
<a href="https://www.figma.com/design/l2WFs4CzaVfr9bS6ZgzSZK/HERISTAYS?node-id=65-833">
<rect fill="black" fill-opacity="0" y="-1.2" width="14" height="18.4"/>
</a>
</svg>
