<svg width="10" height="16" viewBox="0 0 10 16" fill="none" xmlns="http://www.w3.org/2000/svg">
<path d="M7.96875 0.170898C8.73047 0.170898 9.375 0.81543 9.375 1.57715V13.7646C9.375 14.5557 8.73047 15.1709 7.96875 15.1709H1.40625C0.615234 15.1709 0 14.5557 0 13.7646V1.57715C0 0.81543 0.615234 0.170898 1.40625 0.170898H7.96875ZM4.6875 14.2334C5.18555 14.2334 5.625 13.8232 5.625 13.2959C5.625 12.7979 5.18555 12.3584 4.6875 12.3584C4.16016 12.3584 3.75 12.7979 3.75 13.2959C3.75 13.8232 4.16016 14.2334 4.6875 14.2334ZM7.96875 11.0693V1.92871C7.96875 1.75293 7.79297 1.57715 7.61719 1.57715H1.75781C1.55273 1.57715 1.40625 1.75293 1.40625 1.92871V11.0693C1.40625 11.2744 1.55273 11.4209 1.75781 11.4209H7.61719C7.79297 11.4209 7.96875 11.2744 7.96875 11.0693Z" fill="#8A959E"/>
</svg>
