<svg width="13" height="16" viewBox="0 0 13 16" fill="none" xmlns="http://www.w3.org/2000/svg">
<path d="M6.875 0.0146484C9.8125 0.0146484 12.5 2.0459 12.5 5.13965C12.5 8.0459 11 11.2959 7.6875 11.2959C6.875 11.2959 5.90625 10.8896 5.5 10.1709C4.8125 12.9834 4.84375 13.4209 3.28125 15.5771C3.125 15.6396 3.15625 15.6396 3.0625 15.5146C3 14.9209 2.9375 14.3584 2.9375 13.7646C2.9375 11.8584 3.8125 9.07715 4.25 7.2334C4 6.7334 3.9375 6.1709 3.9375 5.63965C3.9375 3.13965 6.875 2.76465 6.875 4.82715C6.875 6.0459 6.03125 7.20215 6.03125 8.38965C6.03125 9.1709 6.71875 9.7334 7.5 9.7334C9.65625 9.7334 10.3125 6.63965 10.3125 4.9834C10.3125 2.76465 8.75 1.5459 6.59375 1.5459C4.125 1.5459 2.21875 3.32715 2.21875 5.82715C2.21875 7.0459 2.96875 7.6709 2.96875 7.95215C2.96875 8.20215 2.78125 9.0459 2.46875 9.0459C1.71875 9.0459 0.5 7.7959 0.5 5.6084C0.5 2.13965 3.65625 0.0146484 6.875 0.0146484Z" fill="#8A8F9A"/>
<a href="https://www.figma.com/design/l2WFs4CzaVfr9bS6ZgzSZK/HERISTAYS?node-id=65-833">
<rect fill="black" fill-opacity="0" y="-1.2" width="12" height="18.4"/>
</a>
</svg>
