<svg width="76" height="68" viewBox="0 0 76 68" fill="none" xmlns="http://www.w3.org/2000/svg">
<g filter="url(#filter0_dd_15_7913)">
<rect x="19.9902" y="8" width="44" height="44" rx="22" fill="white" shape-rendering="crispEdges"/>
<rect x="20.4902" y="8.5" width="43" height="43" rx="21.5" stroke="#DEDEDE" shape-rendering="crispEdges"/>
<path d="M41.9902 22.2852C41.0137 22.2852 40.1803 22.6335 39.4902 23.3301C38.8001 24.0267 38.4551 24.8633 38.4551 25.8398C38.4551 26.8164 38.8001 27.6497 39.4902 28.3398C40.1803 29.0299 41.0137 29.375 41.9902 29.375C42.9668 29.375 43.8001 29.0299 44.4902 28.3398C45.1803 27.6497 45.5254 26.8164 45.5254 25.8398C45.5254 24.8633 45.1803 24.0267 44.4902 23.3301C43.8001 22.6335 42.9668 22.2852 41.9902 22.2852ZM37.2051 25.8398C37.2051 25.1758 37.3288 24.5508 37.5762 23.9648C37.8236 23.3789 38.1654 22.8711 38.6016 22.4414C39.0378 22.0117 39.5488 21.6732 40.1348 21.4258C40.7077 21.1654 41.3262 21.0352 41.9902 21.0352C42.6543 21.0352 43.2728 21.1654 43.8457 21.4258C44.4316 21.6732 44.9427 22.0117 45.3789 22.4414C45.8151 22.8711 46.1569 23.3789 46.4043 23.9648C46.6517 24.5508 46.7754 25.1758 46.7754 25.8398C46.7754 26.4909 46.6517 27.1094 46.4043 27.6953C46.1569 28.2812 45.8151 28.7891 45.3789 29.2188C44.9427 29.6484 44.4316 29.9935 43.8457 30.2539C43.2728 30.5013 42.6543 30.625 41.9902 30.625C41.3262 30.625 40.7077 30.5013 40.1348 30.2539C39.5488 29.9935 39.0378 29.6484 38.6016 29.2188C38.1654 28.7891 37.8236 28.2812 37.5762 27.6953C37.3288 27.1094 37.2051 26.4909 37.2051 25.8398ZM34.1973 38.3398C34.1973 37.4154 34.4121 36.556 34.8418 35.7617C35.2585 34.9805 35.8216 34.3001 36.5312 33.7207C37.2409 33.1413 38.071 32.6888 39.0215 32.3633C39.959 32.0378 40.9486 31.875 41.9902 31.875C43.0319 31.875 44.0215 32.0378 44.959 32.3633C45.9095 32.6888 46.7396 33.1413 47.4492 33.7207C48.1589 34.3001 48.722 34.9805 49.1387 35.7617C49.5684 36.556 49.7832 37.4154 49.7832 38.3398C49.7832 38.5091 49.7214 38.6556 49.5977 38.7793C49.474 38.903 49.3275 38.9648 49.1582 38.9648C48.9759 38.9648 48.8262 38.903 48.709 38.7793C48.5918 38.6556 48.5332 38.5091 48.5332 38.3398C48.5332 37.6497 48.3639 36.9857 48.0254 36.3477C47.6999 35.7227 47.2441 35.1725 46.6582 34.6973C46.0723 34.222 45.3822 33.8411 44.5879 33.5547C43.7936 33.2682 42.9277 33.125 41.9902 33.125C41.0527 33.125 40.1868 33.2682 39.3926 33.5547C38.5983 33.8411 37.9082 34.222 37.3223 34.6973C36.7363 35.1725 36.2806 35.7227 35.9551 36.3477C35.6165 36.9857 35.4473 37.6497 35.4473 38.3398C35.4473 38.5091 35.3887 38.6556 35.2715 38.7793C35.1543 38.903 35.0046 38.9648 34.8223 38.9648C34.653 38.9648 34.5065 38.903 34.3828 38.7793C34.2591 38.6556 34.1973 38.5091 34.1973 38.3398Z" fill="black"/>
</g>
<defs>
<filter id="filter0_dd_15_7913" x="7.99023" y="0" width="68" height="68" filterUnits="userSpaceOnUse" color-interpolation-filters="sRGB">
<feFlood flood-opacity="0" result="BackgroundImageFix"/>
<feColorMatrix in="SourceAlpha" type="matrix" values="0 0 0 0 0 0 0 0 0 0 0 0 0 0 0 0 0 0 127 0" result="hardAlpha"/>
<feOffset dy="4"/>
<feGaussianBlur stdDeviation="6"/>
<feComposite in2="hardAlpha" operator="out"/>
<feColorMatrix type="matrix" values="0 0 0 0 0 0 0 0 0 0 0 0 0 0 0 0 0 0 0.05 0"/>
<feBlend mode="normal" in2="BackgroundImageFix" result="effect1_dropShadow_15_7913"/>
<feColorMatrix in="SourceAlpha" type="matrix" values="0 0 0 0 0 0 0 0 0 0 0 0 0 0 0 0 0 0 127 0" result="hardAlpha"/>
<feOffset dy="1"/>
<feGaussianBlur stdDeviation="1"/>
<feComposite in2="hardAlpha" operator="out"/>
<feColorMatrix type="matrix" values="0 0 0 0 0 0 0 0 0 0 0 0 0 0 0 0 0 0 0.08 0"/>
<feBlend mode="normal" in2="effect1_dropShadow_15_7913" result="effect2_dropShadow_15_7913"/>
<feBlend mode="normal" in="SourceGraphic" in2="effect2_dropShadow_15_7913" result="shape"/>
</filter>
</defs>
</svg>
