<svg width="15" height="16" viewBox="0 0 15 16" fill="none" xmlns="http://www.w3.org/2000/svg">
<path d="M13.125 5.7959C14.1504 5.7959 15 6.64551 15 7.6709V10.9521C15 11.2158 14.7656 11.4209 14.5312 11.4209H13.125V14.2334C13.125 14.7607 12.6855 15.1709 12.1875 15.1709H2.8125C2.28516 15.1709 1.875 14.7607 1.875 14.2334V11.4209H0.46875C0.205078 11.4209 0 11.2158 0 10.9521V7.6709C0 6.64551 0.820312 5.7959 1.875 5.7959V1.1084C1.875 0.610352 2.28516 0.170898 2.8125 0.170898H10.8398C11.1035 0.170898 11.3379 0.288086 11.5137 0.463867L12.832 1.78223C13.0078 1.95801 13.125 2.19238 13.125 2.45605V5.7959ZM11.25 13.2959V10.4834H3.75V13.2959H11.25ZM11.25 6.7334V3.9209H9.84375C9.58008 3.9209 9.375 3.71582 9.375 3.45215V2.0459H3.75V6.7334H11.25ZM12.6562 8.84277C13.0371 8.84277 13.3594 8.5498 13.3594 8.13965C13.3594 7.75879 13.0371 7.43652 12.6562 7.43652C12.2461 7.43652 11.9531 7.75879 11.9531 8.13965C11.9531 8.5498 12.2461 8.84277 12.6562 8.84277Z" fill="#8A959E"/>
</svg>
