<svg width="21" height="20" viewBox="0 0 21 20" fill="none" xmlns="http://www.w3.org/2000/svg">
<g clip-path="url(#clip0_443_4177)">
<g clip-path="url(#clip1_443_4177)">
<g clip-path="url(#clip2_443_4177)">
<mask id="mask0_443_4177" style="mask-type:luminance" maskUnits="userSpaceOnUse" x="0" y="0" width="21" height="20">
<path d="M20.25 0H0.25V20H20.25V0Z" fill="white"/>
</mask>
<g mask="url(#mask0_443_4177)">
<path d="M9.78792 1.60974C9.95872 1.1991 10.5405 1.1991 10.7113 1.60974L12.7774 6.57722C12.8494 6.75034 13.0122 6.86863 13.1991 6.88361L18.5619 7.31354C19.0052 7.34908 19.185 7.90234 18.8472 8.19167L14.7613 11.6917C14.6189 11.8137 14.5567 12.0051 14.6002 12.1874L15.8485 17.4206C15.9517 17.8532 15.4811 18.1952 15.1015 17.9633L10.5102 15.159C10.3502 15.0613 10.149 15.0613 9.98895 15.159L5.39764 17.9633C5.01809 18.1952 4.54746 17.8532 4.65066 17.4206L5.89897 12.1874C5.94247 12.0051 5.88028 11.8137 5.73789 11.6917L1.65199 8.19167C1.31422 7.90234 1.49399 7.34908 1.93731 7.31354L7.30012 6.88361C7.48702 6.86863 7.64982 6.75034 7.72183 6.57722L9.78792 1.60974Z" fill="#F2F4F7"/>
<mask id="mask1_443_4177" style="mask-type:luminance" maskUnits="userSpaceOnUse" x="0" y="0" width="21" height="20">
<path d="M20.25 0H0.25V20H20.25V0Z" fill="white"/>
</mask>
<g mask="url(#mask1_443_4177)">
<path d="M9.78792 1.60974C9.95872 1.1991 10.5405 1.1991 10.7113 1.60974L12.7774 6.57722C12.8494 6.75034 13.0122 6.86863 13.1991 6.88361L18.5619 7.31354C19.0052 7.34908 19.185 7.90234 18.8472 8.19167L14.7613 11.6917C14.6189 11.8137 14.5567 12.0051 14.6002 12.1874L15.8485 17.4206C15.9517 17.8532 15.4811 18.1952 15.1015 17.9633L10.5102 15.159C10.3502 15.0613 10.149 15.0613 9.98895 15.159L5.39764 17.9633C5.01809 18.1952 4.54746 17.8532 4.65066 17.4206L5.89897 12.1874C5.94247 12.0051 5.88028 11.8137 5.73789 11.6917L1.65199 8.19167C1.31422 7.90234 1.49399 7.34908 1.93731 7.31354L7.30012 6.88361C7.48702 6.86863 7.64982 6.75034 7.72183 6.57722L9.78792 1.60974Z" fill="#FDB022"/>
</g>
</g>
</g>
</g>
</g>
<defs>
<clipPath id="clip0_443_4177">
<rect width="20" height="20" fill="white" transform="translate(0.25)"/>
</clipPath>
<clipPath id="clip1_443_4177">
<rect width="20" height="20" fill="white" transform="translate(0.25)"/>
</clipPath>
<clipPath id="clip2_443_4177">
<rect width="20" height="20" fill="white" transform="translate(0.25)"/>
</clipPath>
</defs>
</svg>
