<svg width="278" height="31" viewBox="0 0 278 31" fill="none" xmlns="http://www.w3.org/2000/svg">
<g clip-path="url(#clip0_67_3394)">
<g clip-path="url(#clip1_67_3394)">
<path d="M0 3.15527C0 1.49842 1.34315 0.155273 3 0.155273H43C44.6569 0.155273 46 1.49842 46 3.15527V27.1553C46 28.8122 44.6569 30.1553 43 30.1553H3C1.34315 30.1553 0 28.8122 0 27.1553V3.15527Z" fill="white"/>
<path d="M20.6689 20.0636H17.8369L19.6082 9.71777H22.4401L20.6689 20.0636Z" fill="#00579F"/>
<path d="M30.9356 9.97073C30.377 9.7614 29.4911 9.53027 28.3956 9.53027C25.5989 9.53027 23.6295 10.939 23.6174 12.953C23.5941 14.439 25.0274 15.2643 26.0994 15.7598C27.1951 16.2661 27.5675 16.5965 27.5675 17.0478C27.5564 17.7409 26.6821 18.0604 25.8668 18.0604C24.7361 18.0604 24.1303 17.8957 23.2096 17.5101L22.8367 17.3448L22.4404 19.6672C23.1046 19.953 24.3284 20.2067 25.5989 20.2178C28.5704 20.2178 30.505 18.8309 30.5279 16.6846C30.5392 15.5069 29.7824 14.6044 28.1507 13.867C27.1602 13.3937 26.5536 13.0745 26.5536 12.5901C26.5652 12.1498 27.0667 11.6988 28.1848 11.6988C29.1055 11.6767 29.7819 11.8858 30.2944 12.0949L30.5505 12.2048L30.9356 9.97073Z" fill="#00579F"/>
<path d="M34.7 16.3984C34.9332 15.8041 35.8306 13.5038 35.8306 13.5038C35.8189 13.5259 36.0634 12.8985 36.2032 12.5133L36.4012 13.4047C36.4012 13.4047 36.9375 15.8812 37.0539 16.3984C36.6113 16.3984 35.2593 16.3984 34.7 16.3984ZM38.1957 9.71777H36.0052C35.3296 9.71777 34.8164 9.90472 34.525 10.5762L30.3184 20.0634H33.2899C33.2899 20.0634 33.7791 18.7865 33.8843 18.5115C34.2103 18.5115 37.101 18.5115 37.5204 18.5115C37.6017 18.8747 37.8583 20.0634 37.8583 20.0634H40.4804L38.1957 9.71777Z" fill="#00579F"/>
<path d="M15.4724 9.71777L12.699 16.7726L12.3959 15.3418C11.8832 13.6909 10.275 11.8971 8.48047 11.0052L11.0209 20.0526H14.0156L18.4671 9.71777H15.4724Z" fill="#00579F"/>
<path d="M10.1236 9.71777H5.56712L5.52051 9.92681C9.0748 10.7854 11.4287 12.8549 12.3959 15.3423L11.4054 10.5875C11.2423 9.92666 10.7411 9.73957 10.1236 9.71777Z" fill="#FAA61A"/>
<path d="M58 3.15527C58 1.49842 59.3431 0.155273 61 0.155273H101C102.657 0.155273 104 1.49842 104 3.15527V27.1553C104 28.8122 102.657 30.1553 101 30.1553H61C59.3431 30.1553 58 28.8122 58 27.1553V3.15527Z" fill="white"/>
<path fill-rule="evenodd" clip-rule="evenodd" d="M80.9996 22.1918C79.4335 23.569 77.4021 24.4003 75.1823 24.4003C70.2292 24.4003 66.2139 20.2612 66.2139 15.1553C66.2139 10.0493 70.2292 5.91016 75.1823 5.91016C77.4021 5.91016 79.4335 6.74152 80.9996 8.11867C82.5656 6.74152 84.5971 5.91016 86.8169 5.91016C91.77 5.91016 95.7853 10.0493 95.7853 15.1553C95.7853 20.2612 91.77 24.4003 86.8169 24.4003C84.5971 24.4003 82.5656 23.569 80.9996 22.1918Z" fill="#ED0006"/>
<path fill-rule="evenodd" clip-rule="evenodd" d="M81 22.1918C82.9284 20.4961 84.1511 17.9729 84.1511 15.1553C84.1511 12.3376 82.9284 9.81438 81 8.11867C82.5661 6.74152 84.5975 5.91016 86.8173 5.91016C91.7704 5.91016 95.7857 10.0493 95.7857 15.1553C95.7857 20.2612 91.7704 24.4003 86.8173 24.4003C84.5975 24.4003 82.5661 23.569 81 22.1918Z" fill="#F9A000"/>
<path fill-rule="evenodd" clip-rule="evenodd" d="M80.9996 8.11816C82.9279 9.81388 84.1506 12.3371 84.1506 15.1547C84.1506 17.9723 82.9279 20.4955 80.9996 22.1912C79.0713 20.4955 77.8486 17.9723 77.8486 15.1547C77.8486 12.3371 79.0713 9.81388 80.9996 8.11816Z" fill="#FF5E00"/>
<path d="M116 3.15527C116 1.49842 117.343 0.155273 119 0.155273H159C160.657 0.155273 162 1.49842 162 3.15527V27.1553C162 28.8122 160.657 30.1553 159 30.1553H119C117.343 30.1553 116 28.8122 116 27.1553V3.15527Z" fill="white"/>
<path d="M120.322 9.10508H118.421V15.9801H120.322C121.326 15.9801 122.053 15.7301 122.694 15.1926C123.457 14.5426 123.905 13.5676 123.905 12.5551C123.893 10.5176 122.428 9.10508 120.322 9.10508ZM121.847 14.2801C121.435 14.6551 120.915 14.8301 120.067 14.8301H119.716V10.2801H120.067C120.903 10.2801 121.411 10.4301 121.847 10.8301C122.295 11.2426 122.561 11.8801 122.561 12.5426C122.561 13.2051 122.295 13.8676 121.847 14.2801ZM124.498 9.10508H125.793V15.9801H124.498V9.10508ZM128.965 11.7426C128.19 11.4426 127.96 11.2426 127.96 10.8801C127.96 10.4426 128.372 10.1176 128.928 10.1176C129.316 10.1176 129.643 10.2801 129.969 10.6801L130.647 9.76758C130.09 9.26758 129.425 9.00508 128.686 9.00508C127.512 9.00508 126.604 9.85508 126.604 10.9801C126.604 11.9301 127.028 12.4176 128.238 12.8676C128.747 13.0551 129.001 13.1801 129.134 13.2551C129.388 13.4301 129.522 13.6801 129.522 13.9676C129.522 14.5301 129.098 14.9426 128.517 14.9426C127.899 14.9426 127.403 14.6176 127.1 14.0301L126.265 14.8676C126.858 15.7801 127.585 16.1801 128.565 16.1801C129.909 16.1801 130.865 15.2551 130.865 13.9176C130.889 12.8051 130.442 12.3051 128.965 11.7426ZM131.289 12.5551C131.289 14.5801 132.826 16.1426 134.799 16.1426C135.356 16.1426 135.84 16.0301 136.422 15.7426V14.1676C135.901 14.7051 135.441 14.9176 134.86 14.9176C133.553 14.9176 132.62 13.9426 132.62 12.5426C132.62 11.2176 133.577 10.1801 134.799 10.1801C135.417 10.1801 135.889 10.4051 136.422 10.9551V9.38008C135.853 9.08008 135.38 8.95508 134.824 8.95508C132.875 8.95508 131.289 10.5551 131.289 12.5551ZM146.735 13.7301L144.956 9.10508H143.539L146.36 16.1551H147.062L149.931 9.10508H148.527L146.735 13.7301ZM150.524 15.9801H154.204V14.8176H151.819V12.9676H154.119V11.8051H151.819V10.2801H154.204V9.10508H150.524V15.9801ZM159.349 11.1426C159.349 9.85508 158.489 9.11758 156.988 9.11758H155.064V15.9926H156.359V13.2301H156.528L158.32 15.9926H159.918L157.824 13.0926C158.804 12.8801 159.349 12.1926 159.349 11.1426ZM156.734 12.2801H156.359V10.1926H156.758C157.569 10.1926 158.005 10.5426 158.005 11.2176C158.005 11.9051 157.569 12.2801 156.734 12.2801Z" fill="#231F20"/>
<path d="M140.404 16.2309C141.345 16.2309 142.248 15.8449 142.913 15.1578C143.578 14.4707 143.952 13.5388 143.952 12.5671C143.952 11.5954 143.578 10.6635 142.913 9.97641C142.248 9.28932 141.345 8.90332 140.404 8.90332C139.463 8.90332 138.561 9.28932 137.895 9.97641C137.23 10.6635 136.856 11.5954 136.856 12.5671C136.856 13.5388 137.23 14.4707 137.895 15.1578C138.561 15.8449 139.463 16.2309 140.404 16.2309Z" fill="url(#paint0_linear_67_3394)"/>
<path opacity="0.65" d="M140.404 16.2309C141.345 16.2309 142.248 15.8449 142.913 15.1578C143.578 14.4707 143.952 13.5388 143.952 12.5671C143.952 11.5954 143.578 10.6635 142.913 9.97641C142.248 9.28932 141.345 8.90332 140.404 8.90332C139.463 8.90332 138.561 9.28932 137.895 9.97641C137.23 10.6635 136.856 11.5954 136.856 12.5671C136.856 13.5388 137.23 14.4707 137.895 15.1578C138.561 15.8449 139.463 16.2309 140.404 16.2309Z" fill="url(#paint1_linear_67_3394)"/>
<path d="M160.269 9.53711C160.269 9.41211 160.184 9.34961 160.051 9.34961H159.857V9.94961H160.003V9.71211L160.172 9.94961H160.342L160.148 9.69961C160.221 9.68711 160.269 9.62461 160.269 9.53711ZM160.027 9.62461H160.003V9.46211H160.027C160.1 9.46211 160.136 9.48711 160.136 9.53711C160.136 9.59961 160.1 9.62461 160.027 9.62461Z" fill="#231F20"/>
<path d="M160.075 9.125C159.797 9.125 159.567 9.3625 159.567 9.65C159.567 9.9375 159.797 10.175 160.075 10.175C160.354 10.175 160.584 9.9375 160.584 9.65C160.584 9.3625 160.354 9.125 160.075 9.125ZM160.075 10.0875C159.857 10.0875 159.664 9.9 159.664 9.65C159.664 9.4125 159.845 9.2125 160.075 9.2125C160.293 9.2125 160.475 9.4125 160.475 9.65C160.475 9.8875 160.293 10.0875 160.075 10.0875Z" fill="#231F20"/>
<path d="M161.971 16.0928C161.971 16.0928 149.619 25.765 127.04 30.1553H159.477C160.135 30.1553 160.766 29.8626 161.233 29.3408C161.7 28.8191 161.965 28.1106 161.97 27.3698L162 23.1297L161.971 16.0942V16.0928Z" fill="#F48120"/>
<path d="M174 3.15527C174 1.49842 175.343 0.155273 177 0.155273H217C218.657 0.155273 220 1.49842 220 3.15527V27.1553C220 28.8122 218.657 30.1553 217 30.1553H177C175.343 30.1553 174 28.8122 174 27.1553V3.15527Z" fill="white"/>
<path d="M202.932 10.5303C203.174 9.28027 202.932 8.40527 202.205 7.65527C201.479 6.78027 200.148 6.40527 198.453 6.40527H193.49C193.126 6.40527 192.884 6.65527 192.763 7.03027L190.948 19.6553C190.948 19.9053 191.069 20.1553 191.311 20.1553H194.579L195.063 15.9053L197.242 13.1553L202.932 10.5303Z" fill="#003087"/>
<path d="M202.932 10.5303L202.69 10.7803C202.084 14.2803 200.027 15.5303 197.121 15.5303H195.79C195.427 15.5303 195.184 15.7803 195.063 16.1553L194.337 21.0303L194.095 22.2803C194.095 22.5303 194.216 22.7803 194.458 22.7803H197C197.363 22.7803 197.605 22.5303 197.605 22.2803V22.1553L198.09 19.1553V19.0303C198.09 18.7803 198.453 18.5303 198.695 18.5303H199.058C201.6 18.5303 203.537 17.5303 204.021 14.5303C204.263 13.2803 204.142 12.2803 203.537 11.5303C203.416 10.9053 203.174 10.6553 202.932 10.5303Z" fill="#3086C8"/>
<path d="M202.205 10.2803C202.084 10.1553 201.963 10.1553 201.842 10.1553C201.721 10.1553 201.6 10.1553 201.479 10.0303C201.116 9.90527 200.631 9.90527 200.147 9.90527H196.516C196.395 9.90527 196.274 9.90527 196.274 10.0303C196.031 10.1553 195.91 10.2803 195.91 10.5303L195.063 16.0303V16.1553C195.063 15.7803 195.426 15.5303 195.789 15.5303H197.363C200.389 15.5303 202.326 14.2803 202.931 10.7803V10.5303C202.81 10.4053 202.568 10.2803 202.326 10.2803H202.205Z" fill="#012169"/>
<path d="M232 3.15527C232 1.49842 233.343 0.155273 235 0.155273H275C276.657 0.155273 278 1.49842 278 3.15527V27.1553C278 28.8122 276.657 30.1553 275 30.1553H235C233.343 30.1553 232 28.8122 232 27.1553V3.15527Z" fill="white"/>
<path fill-rule="evenodd" clip-rule="evenodd" d="M260.86 16.0225H262.486C262.513 16.0229 262.539 16.0246 262.566 16.0275C262.599 16.0313 262.631 16.0363 262.663 16.0425L262.673 16.0445C262.72 16.0559 262.765 16.0726 262.808 16.0945C262.914 16.1462 263.006 16.2252 263.077 16.3245C263.142 16.415 263.188 16.5203 263.211 16.6325C263.253 16.8346 263.224 17.0463 263.13 17.2265C263.071 17.3366 262.988 17.4291 262.889 17.4955C262.822 17.5402 262.749 17.5727 262.673 17.5915L262.663 17.594C262.649 17.5977 262.634 17.6004 262.62 17.602C262.575 17.6089 262.531 17.6129 262.486 17.614H260.86V16.0225ZM263.023 14.2205C263.057 14.3907 263.038 14.5683 262.969 14.7255C262.911 14.8541 262.817 14.9596 262.7 15.0275C262.634 15.0682 262.561 15.0961 262.486 15.11L262.479 15.111C262.464 15.1141 262.448 15.1163 262.432 15.1175C262.396 15.1213 262.36 15.1236 262.324 15.1245H260.86V13.656H262.351C262.387 13.6576 262.423 13.6609 262.459 13.666L262.479 13.6685L262.486 13.67C262.541 13.6805 262.595 13.6985 262.647 13.7235C262.694 13.747 262.739 13.7758 262.781 13.8095C262.832 13.8519 262.877 13.9021 262.915 13.9585C262.967 14.0368 263.004 14.126 263.023 14.2205ZM266.355 6.60352H266.366V21.6905C266.365 22.075 266.298 22.4559 266.167 22.813C266.089 23.023 265.99 23.2226 265.871 23.408C265.854 23.4354 265.836 23.4624 265.817 23.489L265.79 23.527C265.764 23.5638 265.737 23.6 265.71 23.6355L265.683 23.67L265.656 23.7025C265.638 23.724 265.621 23.7451 265.603 23.766L265.575 23.796L265.549 23.826L265.522 23.8545L265.495 23.8825C265.451 23.9271 265.407 23.9701 265.361 24.0115L265.334 24.0355L265.307 24.059L265.28 24.0815L265.253 24.1035L265.226 24.125L265.199 24.1465L265.173 24.1665L265.145 24.187L265.119 24.2065L265.092 24.2255L265.065 24.244C265.047 24.2563 265.029 24.2683 265.011 24.28L264.984 24.2975C264.976 24.3031 264.967 24.3086 264.958 24.314L264.931 24.3305L264.904 24.3465L264.877 24.3615L264.85 24.377L264.823 24.392L264.796 24.406L264.77 24.42L264.742 24.4335L264.716 24.447L264.689 24.4595L264.662 24.472L264.635 24.484L264.608 24.496L264.581 24.5075L264.554 24.5185L264.528 24.529L264.5 24.539C264.492 24.5425 264.483 24.5465 264.474 24.5495L264.447 24.559L264.42 24.5685L264.393 24.5775L264.366 24.586L264.339 24.5945L264.313 24.6025L264.286 24.6105L264.259 24.6175L264.232 24.625L264.205 24.632L264.178 24.638L264.151 24.6445L264.125 24.6505L264.097 24.6555L264.071 24.6615L264.044 24.6665L264.017 24.671L263.99 24.6755L263.963 24.6795L263.936 24.6835L263.909 24.687L263.883 24.69L263.856 24.693L263.829 24.696L263.802 24.6985L263.775 24.7005L263.748 24.7025C263.739 24.7025 263.73 24.7035 263.721 24.704L263.695 24.705L263.668 24.706L263.641 24.707H263.614L263.587 24.7075H259.499V18.5565H263.856L263.883 18.5555L263.909 18.555C263.919 18.555 263.928 18.554 263.936 18.5535L263.963 18.5525L263.99 18.5505L264.017 18.5485L264.044 18.5465L264.071 18.5435L264.097 18.541L264.125 18.5375L264.151 18.534L264.178 18.53L264.205 18.526L264.232 18.521L264.259 18.516L264.286 18.511L264.313 18.506L264.339 18.4995L264.366 18.4935C264.375 18.4913 264.384 18.4889 264.393 18.4865L264.42 18.4795C264.456 18.4699 264.492 18.4593 264.528 18.4475L264.554 18.4385C264.581 18.4293 264.608 18.4193 264.635 18.4085L264.662 18.397L264.689 18.386L264.716 18.374C264.882 18.2975 265.036 18.1929 265.173 18.064C265.242 17.9953 265.305 17.9189 265.361 17.836C265.447 17.7026 265.511 17.5532 265.549 17.395C265.575 17.282 265.588 17.1657 265.587 17.049C265.587 16.9359 265.574 16.8232 265.549 16.7135C265.505 16.5291 265.422 16.3583 265.307 16.2145C265.236 16.124 265.155 16.0437 265.065 15.9755C264.981 15.9095 264.891 15.8527 264.796 15.806C264.77 15.7926 264.743 15.78 264.716 15.768L264.689 15.756C264.68 15.7523 264.671 15.7486 264.662 15.745L264.635 15.7345C264.6 15.7208 264.564 15.7079 264.528 15.696L264.5 15.6875C264.447 15.6709 264.394 15.6565 264.339 15.6445L264.313 15.6385L264.286 15.633L264.259 15.628C264.25 15.6263 264.241 15.6246 264.232 15.623L264.205 15.618C264.196 15.6166 264.187 15.6153 264.178 15.614L264.151 15.61L264.125 15.606L264.097 15.603L264.071 15.6L264.044 15.597L264.017 15.5945L263.992 15.5925V15.5575L264.017 15.5535L264.044 15.5485L264.071 15.5435L264.097 15.5385L264.125 15.532L264.151 15.5255C264.252 15.5008 264.351 15.4672 264.447 15.425C264.561 15.3734 264.669 15.3071 264.769 15.2275C264.929 15.0979 265.058 14.929 265.145 14.7345C265.203 14.6019 265.24 14.4593 265.253 14.313C265.262 14.2178 265.262 14.1218 265.253 14.0265C265.242 13.9036 265.214 13.7829 265.173 13.668C265.113 13.5071 265.021 13.3624 264.904 13.244C264.854 13.192 264.8 13.1449 264.743 13.103C264.667 13.046 264.585 12.9971 264.5 12.957C264.431 12.9234 264.359 12.8945 264.286 12.8705L264.259 12.862C264.241 12.8564 264.223 12.8511 264.205 12.846L264.178 12.839C264.16 12.8341 264.142 12.8294 264.125 12.825L264.097 12.819L264.071 12.813L264.044 12.808L264.017 12.803L263.99 12.798L263.963 12.793L263.936 12.789L263.909 12.7855L263.883 12.782L263.856 12.779L263.829 12.776L263.802 12.7735L263.775 12.771L263.748 12.769L263.721 12.7675L263.711 12.7665L263.695 12.7655L263.668 12.764L263.641 12.762L263.614 12.7605L263.587 12.7595L263.56 12.758L263.533 12.757L263.506 12.756L263.48 12.7555H263.453L263.438 12.755H259.498V9.62152C259.499 9.17017 259.592 8.72459 259.771 8.31752C259.819 8.20915 259.873 8.10411 259.932 8.00302C259.95 7.97333 259.968 7.94399 259.986 7.91502L260.013 7.87352C260.031 7.84689 260.049 7.82055 260.067 7.79452L260.094 7.75652L260.121 7.72052C260.138 7.69687 260.156 7.67353 260.174 7.65052L260.201 7.61802L260.228 7.58552C260.254 7.55428 260.281 7.52361 260.309 7.49352L260.336 7.46502L260.362 7.43652L260.389 7.40952L260.416 7.38252L260.443 7.35702C260.478 7.32345 260.514 7.29077 260.55 7.25902L260.578 7.23652L260.604 7.21402C260.622 7.19947 260.64 7.18513 260.658 7.17102L260.685 7.15052C260.694 7.14379 260.703 7.13712 260.712 7.13052L260.739 7.11052L260.766 7.09102L260.792 7.07252L260.819 7.05452L260.846 7.03652L260.873 7.01902L260.9 7.00202L260.927 6.98552L260.954 6.96952L260.981 6.95402L261.007 6.93902L261.034 6.92402L261.061 6.90902L261.088 6.89552C261.097 6.89052 261.106 6.88652 261.115 6.88202L261.142 6.86852L261.169 6.85552L261.195 6.84302L261.222 6.83102L261.249 6.81902L261.276 6.80752L261.303 6.79652L261.33 6.78552L261.357 6.77552L261.383 6.76502L261.411 6.75502L261.437 6.74602L261.464 6.73652L261.491 6.72802L261.518 6.71952L261.545 6.71152L261.572 6.70352L261.599 6.69602L261.625 6.68902L261.652 6.68202L261.679 6.67552L261.706 6.66902L261.733 6.66302L261.76 6.65752L261.786 6.65202L261.814 6.64702L261.84 6.64202L261.867 6.63752L261.894 6.63352L261.921 6.62952L261.948 6.62602L261.975 6.62252L262.002 6.61952L262.028 6.61652L262.056 6.61402L262.082 6.61202L262.109 6.61002C262.118 6.61002 262.127 6.60902 262.136 6.60852L262.163 6.60702L262.19 6.60602L262.217 6.60502H262.244L262.27 6.60452H266.355V6.60352Z" fill="#54B230"/>
<path fill-rule="evenodd" clip-rule="evenodd" d="M244.094 17.073V9.62052C244.095 9.16971 244.188 8.72467 244.367 8.31802C244.429 8.17824 244.5 8.04384 244.581 7.91602L244.608 7.87402L244.635 7.83402L244.662 7.79502L244.688 7.75752L244.715 7.72102C244.733 7.69739 244.751 7.67405 244.769 7.65102L244.796 7.61852C244.805 7.60761 244.814 7.59678 244.823 7.58602L244.849 7.55452C244.867 7.53424 244.885 7.51424 244.903 7.49452L244.93 7.46552L244.956 7.43752L244.984 7.41002L245.01 7.38352L245.037 7.35752L245.064 7.33252L245.091 7.30752C245.134 7.26759 245.179 7.22923 245.225 7.19252L245.252 7.17152C245.287 7.14387 245.323 7.11719 245.359 7.09152L245.386 7.07302L245.413 7.05502L245.439 7.03702L245.466 7.01952L245.493 7.00252L245.52 6.98652L245.547 6.97002L245.574 6.95502L245.6 6.93902L245.627 6.92402L245.654 6.91002C245.663 6.90502 245.672 6.90002 245.681 6.89602L245.708 6.88202L245.734 6.86852L245.761 6.85602L245.788 6.84352L245.815 6.83102L245.842 6.81952L245.869 6.80802L245.895 6.79702L245.922 6.78552L245.949 6.77552L245.976 6.76552L246.003 6.75552L246.03 6.74602L246.056 6.73702L246.083 6.72802L246.11 6.71952L246.137 6.71152L246.164 6.70352L246.191 6.69602L246.217 6.68902L246.244 6.68202C246.253 6.67943 246.262 6.67726 246.271 6.67552L246.298 6.66902L246.324 6.66302L246.352 6.65752L246.378 6.65152L246.405 6.64652L246.432 6.64152C246.441 6.64052 246.45 6.63852 246.459 6.63702L246.485 6.63302L246.513 6.62902L246.539 6.62552L246.566 6.62202L246.593 6.61902L246.62 6.61602L246.646 6.61352L246.673 6.61152L246.7 6.60952L246.727 6.60752L246.754 6.60652L246.781 6.60502L246.807 6.60402H246.834L246.861 6.60352H250.961V21.6895C250.961 22.0301 250.908 22.3681 250.804 22.6895C250.7 23.012 250.546 23.3125 250.348 23.578L250.321 23.614C250.304 23.637 250.286 23.6597 250.268 23.682L250.241 23.7145L250.214 23.746L250.187 23.777C250.152 23.8164 250.117 23.8548 250.08 23.892L250.053 23.919L250.026 23.945L249.999 23.9705L249.973 23.9955L249.946 24.02L249.919 24.043L249.892 24.0665L249.866 24.0885L249.838 24.111L249.812 24.132L249.785 24.153L249.758 24.173L249.731 24.193L249.705 24.2125L249.677 24.2315C249.669 24.238 249.66 24.2435 249.651 24.2495L249.624 24.268L249.597 24.285L249.57 24.3025C249.561 24.3075 249.552 24.3135 249.544 24.319C249.526 24.33 249.508 24.3406 249.49 24.351L249.463 24.366L249.436 24.381L249.409 24.396L249.383 24.41L249.356 24.4235L249.329 24.4375L249.302 24.45L249.275 24.463L249.248 24.4755L249.222 24.487L249.195 24.499L249.168 24.51L249.141 24.521L249.114 24.531L249.088 24.5415L249.061 24.5515L249.034 24.5615C249.025 24.564 249.016 24.5675 249.007 24.5705L248.98 24.579L248.953 24.588L248.927 24.596L248.9 24.604L248.873 24.612L248.846 24.619L248.819 24.626L248.792 24.633L248.766 24.639L248.739 24.6455L248.712 24.651L248.685 24.6565L248.658 24.6615L248.631 24.6665L248.605 24.6715L248.578 24.6755L248.551 24.6795L248.524 24.6835L248.497 24.687L248.47 24.69L248.444 24.693L248.417 24.6955L248.39 24.698L248.363 24.7L248.336 24.702L248.309 24.7035L248.283 24.7045L248.256 24.7055L248.229 24.706H248.202L248.177 24.707H244.094V18.3485L244.152 18.365L244.179 18.372L244.206 18.379L244.232 18.386L244.259 18.393L244.286 18.4L244.313 18.4065L244.34 18.413L244.367 18.4195L244.393 18.426L244.42 18.432L244.447 18.4385L244.474 18.4445L244.501 18.4505L244.527 18.4565L244.554 18.4625L244.581 18.468L244.608 18.474L244.635 18.4795L244.662 18.485L244.688 18.4905L244.715 18.496L244.742 18.5015L244.769 18.5065L244.796 18.512L244.823 18.517L244.849 18.522L244.876 18.527L244.903 18.532L244.93 18.537L244.956 18.542L244.984 18.547L245.01 18.552L245.037 18.556L245.064 18.561L245.091 18.5655L245.117 18.57L245.145 18.574L245.171 18.5785L245.198 18.5825L245.225 18.587L245.252 18.591L245.278 18.595L245.306 18.599L245.332 18.603L245.359 18.607L245.386 18.6105L245.413 18.6145L245.439 18.618L245.466 18.622L245.493 18.6255L245.52 18.629L245.547 18.6325L245.574 18.6355L245.6 18.639L245.627 18.6425L245.654 18.6455L245.681 18.6485L245.708 18.6515L245.734 18.6545L245.761 18.6575L245.788 18.6605L245.815 18.6635L245.842 18.666L245.869 18.6685L245.895 18.6715L245.922 18.674L245.949 18.6765L245.976 18.679L246.003 18.681L246.03 18.6835L246.056 18.6855L246.083 18.688L246.11 18.69L246.137 18.692L246.164 18.694L246.191 18.696L246.217 18.698L246.244 18.6995L246.271 18.7015L246.298 18.703L246.324 18.7045L246.352 18.706L246.378 18.7075L246.405 18.709L246.432 18.7105L246.459 18.712L246.485 18.713L246.513 18.714L246.539 18.715L246.566 18.716L246.593 18.717L246.62 18.718L246.646 18.719L246.673 18.7195L246.7 18.7205H246.727L246.754 18.7215H246.781L246.807 18.7225H246.861L246.888 18.723H247.076L247.102 18.722H247.129L247.156 18.721L247.183 18.7205L247.21 18.7195L247.237 18.719L247.263 18.718L247.29 18.717L247.317 18.716L247.344 18.715L247.371 18.7135L247.398 18.712L247.424 18.711L247.451 18.7095L247.478 18.7075L247.505 18.706L247.531 18.7045L247.559 18.7025L247.585 18.7L247.612 18.698L247.639 18.696L247.666 18.6935L247.692 18.691L247.72 18.6885L247.746 18.686L247.773 18.6835L247.8 18.6805L247.827 18.6775L247.853 18.6745L247.88 18.6715L247.907 18.668L247.934 18.6645L247.961 18.661L247.988 18.6575L248.014 18.6535L248.041 18.6495L248.068 18.6455L248.095 18.641L248.122 18.637L248.149 18.632L248.175 18.628L248.202 18.623L248.229 18.618L248.256 18.613L248.283 18.608L248.309 18.6025L248.336 18.597L248.363 18.591C248.372 18.5895 248.381 18.587 248.39 18.585L248.417 18.5795L248.444 18.573L248.47 18.5665L248.497 18.56L248.524 18.5535L248.551 18.5465L248.578 18.5395L248.605 18.532L248.631 18.5245L248.658 18.5165L248.685 18.509L248.712 18.5005L248.739 18.4925L248.766 18.484L248.792 18.475L248.819 18.466L248.846 18.4565L248.873 18.447L248.9 18.437L248.927 18.427L248.953 18.417L248.98 18.406L249.007 18.3955L249.034 18.384L249.061 18.3725L249.088 18.361L249.114 18.3485L249.141 18.3365L249.168 18.3235L249.195 18.31L249.222 18.2965C249.231 18.292 249.24 18.2875 249.248 18.2825L249.275 18.2685L249.302 18.2535L249.329 18.2385L249.356 18.2235C249.383 18.2074 249.41 18.1907 249.436 18.1735L249.463 18.156L249.49 18.138L249.517 18.1195L249.544 18.1L249.57 18.0805C249.579 18.0735 249.589 18.067 249.597 18.06L249.624 18.039L249.651 18.017C249.678 17.9945 249.705 17.9711 249.731 17.947L249.758 17.922L249.785 17.8955L249.812 17.8685C249.83 17.8496 249.848 17.8303 249.866 17.8105L249.892 17.7805L249.919 17.748C250.027 17.6166 250.117 17.4693 250.187 17.3105C250.231 17.2133 250.267 17.1123 250.295 17.0085C250.317 16.9282 250.335 16.8466 250.348 16.764C250.376 16.5962 250.389 16.426 250.389 16.2555V12.7545H248.014L247.994 16.2555C247.994 16.376 247.983 16.496 247.961 16.614C247.942 16.7096 247.915 16.803 247.88 16.893C247.838 16.9991 247.784 17.0991 247.719 17.1905C247.65 17.287 247.569 17.3723 247.478 17.444C247.379 17.5226 247.271 17.5856 247.156 17.631C247.112 17.6489 247.067 17.6645 247.022 17.678L246.995 17.686C246.942 17.701 246.888 17.713 246.834 17.722L246.807 17.727C246.79 17.7298 246.772 17.7323 246.754 17.7345L246.727 17.7375L246.7 17.7405L246.673 17.743C246.655 17.7445 246.638 17.7456 246.62 17.7465L246.593 17.748L246.566 17.749H246.539L246.513 17.75H246.459L246.432 17.749H246.405L246.378 17.748L246.352 17.747L246.324 17.7455L246.298 17.7445L246.271 17.743L246.244 17.741L246.217 17.739L246.191 17.737L246.164 17.735L246.137 17.7325L246.11 17.73L246.083 17.727L246.056 17.724L246.03 17.721L246.003 17.7175L245.976 17.714L245.949 17.7105L245.922 17.7065L245.895 17.7025L245.869 17.6985L245.842 17.694L245.815 17.689L245.788 17.6845L245.761 17.6795L245.734 17.6745L245.708 17.6695L245.681 17.6645L245.654 17.6585L245.627 17.653L245.6 17.647L245.574 17.641L245.547 17.6345L245.52 17.6285L245.493 17.622L245.466 17.615L245.439 17.608L245.413 17.601L245.386 17.594L245.359 17.5865L245.332 17.579L245.306 17.5715L245.278 17.5635L245.252 17.5555L245.225 17.5475L245.198 17.539L245.171 17.5305L245.145 17.522L245.117 17.5135L245.091 17.5045L245.064 17.4955L245.037 17.486L245.01 17.477L244.984 17.467L244.956 17.4575L244.93 17.4475L244.903 17.4375L244.876 17.4275L244.849 17.4175L244.823 17.4075L244.796 17.3965L244.769 17.386L244.742 17.375L244.715 17.364L244.688 17.353L244.662 17.342L244.635 17.3305L244.608 17.319L244.581 17.3075L244.554 17.2955L244.527 17.2835L244.501 17.2715L244.474 17.2595L244.447 17.247L244.42 17.2345L244.393 17.222L244.367 17.209L244.34 17.1965L244.313 17.1835L244.286 17.1705L244.259 17.157L244.232 17.1435L244.206 17.13L244.179 17.1165L244.152 17.103L244.094 17.073Z" fill="#006CB9"/>
<path fill-rule="evenodd" clip-rule="evenodd" d="M251.854 13.519C251.834 13.5361 251.815 13.5534 251.797 13.571V9.62102C251.797 9.17008 251.89 8.72487 252.068 8.31802C252.13 8.17821 252.202 8.04382 252.283 7.91602L252.31 7.87402L252.337 7.83402C252.346 7.82111 252.355 7.80828 252.364 7.79552L252.39 7.75752L252.418 7.72152C252.435 7.69789 252.453 7.67455 252.471 7.65152L252.498 7.61852L252.525 7.58602C252.559 7.54493 252.595 7.50492 252.632 7.46602L252.659 7.43752L252.686 7.41052L252.712 7.38352L252.739 7.35752L252.766 7.33252L252.793 7.30752C252.845 7.26053 252.899 7.21534 252.954 7.17202C252.981 7.15125 253.007 7.13091 253.034 7.11102L253.061 7.09202L253.088 7.07302L253.115 7.05502L253.142 7.03702L253.168 7.02002L253.195 7.00252L253.222 6.98652L253.249 6.97002L253.276 6.95502L253.303 6.93952L253.329 6.92452L253.356 6.91002L253.383 6.89602L253.41 6.88252L253.437 6.86902L253.464 6.85602L253.49 6.84352L253.517 6.83152L253.544 6.81952L253.571 6.80802L253.598 6.79702L253.625 6.78602L253.651 6.77602L253.678 6.76552L253.705 6.75552L253.732 6.74602L253.759 6.73702L253.786 6.72852L253.812 6.71952L253.839 6.71152L253.866 6.70352L253.893 6.69602L253.92 6.68902L253.946 6.68202L253.973 6.67552L254 6.66902L254.027 6.66302L254.054 6.65752L254.081 6.65202L254.107 6.64702L254.134 6.64202L254.161 6.63702L254.188 6.63302L254.215 6.62902L254.242 6.62552L254.268 6.62202L254.295 6.61902L254.322 6.61602L254.349 6.61352L254.376 6.61152L254.403 6.60952L254.429 6.60752L254.456 6.60652L254.483 6.60502L254.51 6.60402H254.536L254.564 6.60352H258.664V21.6895C258.664 22.0301 258.61 22.3681 258.507 22.6895C258.443 22.8832 258.363 23.0695 258.265 23.2455C258.248 23.2766 258.23 23.3072 258.212 23.3375C258.203 23.3525 258.194 23.3675 258.185 23.3815C258.142 23.4489 258.098 23.5144 258.051 23.578L258.024 23.614L257.997 23.6485L257.97 23.6815L257.943 23.7145L257.916 23.746L257.89 23.777L257.863 23.807C257.837 23.836 257.81 23.8643 257.783 23.892L257.755 23.919L257.729 23.945L257.702 23.9705L257.675 23.9955L257.648 24.0195L257.622 24.043L257.594 24.0665L257.568 24.0885L257.541 24.1105L257.514 24.132L257.487 24.153L257.461 24.173L257.433 24.193L257.407 24.2125L257.38 24.2315L257.353 24.2495L257.326 24.268L257.3 24.285L257.273 24.3025C257.264 24.3081 257.255 24.3136 257.246 24.319L257.219 24.335L257.192 24.351L257.165 24.366L257.139 24.381L257.112 24.396L257.085 24.41C257.076 24.415 257.067 24.419 257.058 24.4235L257.031 24.437C257.022 24.442 257.013 24.446 257.004 24.45L256.978 24.463L256.951 24.475L256.924 24.487L256.897 24.499L256.87 24.51L256.844 24.521L256.817 24.531L256.79 24.5415L256.763 24.5515L256.736 24.5615C256.727 24.564 256.718 24.5675 256.709 24.5705L256.683 24.579L256.656 24.588L256.629 24.596L256.602 24.604L256.575 24.612L256.548 24.619L256.522 24.626L256.495 24.633L256.468 24.639L256.441 24.6455L256.414 24.651L256.387 24.6565L256.361 24.6615L256.334 24.6665L256.307 24.6715L256.28 24.6755L256.254 24.6795L256.226 24.6835L256.2 24.687L256.173 24.69L256.146 24.693L256.119 24.6955L256.093 24.698L256.065 24.7L256.039 24.702L256.012 24.7035L255.985 24.7045L255.958 24.7055L255.932 24.706L255.904 24.7065H251.797V17.741C251.833 17.7746 251.87 17.8072 251.908 17.8385L251.935 17.8605L251.961 17.882C251.979 17.8961 251.997 17.9099 252.015 17.9235L252.042 17.9435L252.068 17.9625L252.096 17.9815L252.122 18L252.149 18.018L252.176 18.036L252.203 18.053L252.229 18.07L252.257 18.0865L252.283 18.1025L252.31 18.1185L252.337 18.1335L252.364 18.1485L252.39 18.1635L252.418 18.178L252.444 18.192L252.471 18.206L252.498 18.2195L252.525 18.2325L252.551 18.2455L252.578 18.258L252.605 18.2705L252.632 18.2825L252.659 18.2945L252.686 18.306L252.712 18.3175L252.739 18.329L252.766 18.34L252.793 18.35L252.82 18.361L252.847 18.371L252.873 18.381L252.9 18.391L252.927 18.401L252.954 18.41L252.981 18.4195L253.007 18.4285L253.034 18.437L253.061 18.4455L253.088 18.454L253.115 18.4625L253.142 18.4705L253.168 18.4785L253.195 18.4865L253.222 18.494L253.249 18.5015L253.276 18.5085L253.303 18.5155L253.329 18.5225L253.356 18.5295L253.383 18.536L253.41 18.5425L253.437 18.549L253.464 18.555L253.49 18.561L253.517 18.567L253.544 18.573L253.571 18.5785L253.598 18.584L253.625 18.589L253.651 18.5945L253.678 18.5995L253.705 18.6045L253.732 18.6095L253.759 18.6145L253.786 18.619L253.812 18.6235L253.839 18.628L253.866 18.632L253.893 18.636L253.92 18.6405L253.946 18.644L253.973 18.648L254 18.6515L254.027 18.6555L254.054 18.659L254.081 18.662L254.107 18.6655L254.134 18.6685L254.161 18.6715L254.188 18.6745L254.215 18.6775L254.242 18.6805L254.268 18.683L254.295 18.6855L254.322 18.688L254.349 18.6905L254.376 18.693L254.403 18.695L254.429 18.697L254.456 18.699L254.483 18.701L254.51 18.703L254.536 18.7045L254.564 18.7065L254.59 18.708L254.617 18.7095L254.644 18.711L254.671 18.7125L254.697 18.7135L254.725 18.715L254.751 18.716L254.778 18.717L254.805 18.718L254.832 18.719L254.858 18.7195L254.886 18.72L254.912 18.721L254.939 18.7215H254.966L254.993 18.7225H255.019L255.046 18.723H255.127L255.154 18.7235H255.234L255.261 18.723L255.288 18.7225H255.315L255.341 18.7215H255.368L255.395 18.7205L255.422 18.72L255.449 18.719L255.475 18.7185L255.502 18.7175L255.529 18.7165L255.556 18.7155L255.583 18.7145L255.61 18.7135L255.636 18.7125L255.663 18.711L255.69 18.71L255.703 18.7095L255.717 18.7085L255.744 18.7075L255.771 18.706L255.797 18.704L255.824 18.7025L255.851 18.7005L255.878 18.6985L255.904 18.6965L255.932 18.6945L255.958 18.6925L255.985 18.69L256.012 18.6875L256.039 18.685L256.065 18.6825L256.093 18.68L256.119 18.6775L256.146 18.6745L256.173 18.6715L256.2 18.6685L256.226 18.6655L256.254 18.6625L256.28 18.659L256.307 18.656L256.334 18.6525L256.361 18.649L256.387 18.6455L256.414 18.642L256.441 18.6385L256.468 18.6345L256.495 18.631L256.522 18.627L256.548 18.623L256.575 18.619L256.602 18.615L256.629 18.611L256.656 18.607L256.683 18.6025L256.709 18.5985L256.736 18.5935L256.763 18.5895L256.79 18.585L256.817 18.58L256.844 18.576L256.87 18.571L256.897 18.566L256.924 18.5615L256.951 18.5565L256.978 18.5515L257.004 18.5465L257.031 18.5415L257.058 18.5365L257.085 18.5315L257.112 18.5265L257.139 18.5215L257.165 18.5155L257.192 18.5105L257.219 18.505L257.246 18.4995L257.273 18.494L257.3 18.488L257.326 18.483L257.353 18.477L257.38 18.471L257.407 18.465L257.433 18.4595L257.461 18.4535L257.487 18.4475L257.514 18.4415L257.541 18.435L257.568 18.429L257.594 18.4225L257.622 18.4165L257.648 18.41L257.675 18.4035L257.702 18.397L257.729 18.3905L257.755 18.384L257.783 18.377L257.809 18.3705L257.836 18.3635L257.863 18.3565L257.89 18.349V17.073L257.863 17.0875L257.836 17.1015L257.809 17.116L257.783 17.13L257.755 17.144L257.729 17.158L257.702 17.1715L257.675 17.185L257.648 17.1985L257.622 17.2115L257.594 17.225L257.568 17.238L257.541 17.2505L257.514 17.263L257.487 17.2755L257.461 17.288L257.433 17.3005L257.407 17.3125L257.38 17.3245L257.353 17.336L257.326 17.3475L257.3 17.359L257.273 17.37L257.246 17.3815L257.219 17.3925L257.192 17.403L257.165 17.4135L257.139 17.424L257.112 17.434L257.085 17.444L257.058 17.454L257.031 17.464L257.004 17.474L256.978 17.483L256.951 17.4925L256.924 17.5015L256.897 17.5105L256.87 17.5195L256.844 17.528L256.817 17.5365L256.79 17.545L256.763 17.553L256.736 17.561L256.709 17.5685L256.683 17.576L256.656 17.5835L256.629 17.591L256.602 17.598L256.575 17.605L256.548 17.612L256.522 17.6185L256.495 17.625L256.468 17.6315L256.441 17.6375L256.414 17.6435L256.387 17.6495L256.361 17.655L256.334 17.66L256.307 17.666L256.28 17.671L256.254 17.676L256.226 17.681L256.2 17.686L256.173 17.69L256.146 17.695L256.119 17.6985L256.093 17.703L256.065 17.707L256.039 17.7105L256.012 17.714L255.985 17.7175L255.958 17.721L255.932 17.724L255.904 17.727L255.878 17.73L255.851 17.7325L255.824 17.735L255.797 17.7375L255.781 17.739L255.771 17.7395L255.744 17.7415L255.717 17.7435L255.69 17.745L255.663 17.7465L255.636 17.748L255.61 17.749L255.583 17.75H255.556L255.529 17.751H255.422L255.395 17.75L255.368 17.749L255.341 17.748L255.315 17.747L255.288 17.745L255.261 17.7435L255.234 17.7415L255.207 17.739L255.18 17.737L255.154 17.734L255.127 17.731L255.1 17.7275L255.073 17.724L255.046 17.72L255.019 17.716L254.993 17.712L254.966 17.707L254.939 17.702L254.912 17.697L254.886 17.6915L254.858 17.685L254.832 17.679L254.805 17.6725L254.778 17.6655L254.751 17.658L254.725 17.6505L254.697 17.6425C254.688 17.6399 254.68 17.6373 254.671 17.6345L254.644 17.6255C254.626 17.6196 254.608 17.6134 254.59 17.607L254.564 17.597L254.536 17.5865L254.51 17.576L254.483 17.5645L254.456 17.553L254.429 17.5405L254.403 17.528L254.376 17.5145L254.349 17.5005C254.331 17.4912 254.313 17.4815 254.295 17.4715L254.268 17.456C254.259 17.451 254.25 17.445 254.242 17.4395C254.214 17.4227 254.187 17.4052 254.161 17.387C254.152 17.3813 254.143 17.3751 254.134 17.3685L254.107 17.3485C254.089 17.3349 254.071 17.3209 254.054 17.3065L254.027 17.284C254.018 17.2765 254.009 17.2688 254 17.261L253.973 17.237C253.946 17.2114 253.919 17.1847 253.893 17.157C253.884 17.147 253.874 17.138 253.866 17.128C253.818 17.0747 253.773 17.0179 253.732 16.958C253.67 16.8689 253.616 16.7732 253.571 16.6725C253.527 16.5767 253.492 16.477 253.464 16.3745C253.441 16.2944 253.423 16.2129 253.41 16.1305C253.361 15.8163 253.361 15.4953 253.41 15.181C253.429 15.068 253.456 14.9567 253.49 14.848C253.52 14.7567 253.556 14.6678 253.598 14.582C253.651 14.4747 253.714 14.3735 253.786 14.28C253.835 14.2156 253.889 14.1554 253.947 14.1C253.955 14.0915 253.964 14.0825 253.973 14.0745L254 14.05C254.035 14.0194 254.07 13.9902 254.107 13.9625L254.134 13.9425L254.161 13.924C254.179 13.9117 254.197 13.8997 254.215 13.888L254.242 13.8715L254.268 13.855L254.295 13.84C254.313 13.8297 254.331 13.8197 254.349 13.81L254.376 13.7965L254.403 13.783L254.429 13.7705L254.456 13.758L254.483 13.7465L254.51 13.735L254.536 13.7245L254.564 13.714L254.59 13.704C254.617 13.6943 254.644 13.6852 254.671 13.6765L254.697 13.6685L254.725 13.6605C254.733 13.6575 254.742 13.6555 254.751 13.653L254.778 13.6455L254.805 13.6385L254.832 13.632L254.858 13.626L254.886 13.6195L254.912 13.6145L254.939 13.609L254.966 13.604L254.993 13.599L255.019 13.595L255.046 13.5905L255.073 13.587L255.1 13.5835L255.127 13.58L255.154 13.577L255.18 13.574L255.207 13.572L255.234 13.5695L255.261 13.5675L255.288 13.5655L255.315 13.564L255.341 13.563C255.351 13.563 255.359 13.562 255.368 13.5615L255.395 13.561L255.422 13.5605L255.449 13.56H255.529L255.556 13.5605L255.583 13.561L255.61 13.562L255.636 13.563L255.663 13.5645L255.69 13.566L255.717 13.5675L255.744 13.5695L255.771 13.5715L255.781 13.572L255.797 13.5735L255.824 13.576L255.851 13.5785L255.878 13.581L255.904 13.5835L255.932 13.5865L255.958 13.59L255.985 13.593L256.012 13.5965L256.039 13.6L256.065 13.6035L256.093 13.6075L256.119 13.6115L256.146 13.616L256.173 13.62L256.2 13.625L256.226 13.6295L256.254 13.6345L256.28 13.6395L256.307 13.6445L256.334 13.6495L256.361 13.6545L256.387 13.6605L256.414 13.6665L256.441 13.6725L256.468 13.6785L256.495 13.6845L256.522 13.691L256.548 13.6975L256.575 13.7045L256.602 13.7115L256.629 13.7185L256.656 13.7255L256.683 13.733L256.709 13.7405L256.736 13.7485L256.763 13.7565L256.79 13.7645L256.817 13.773L256.844 13.781L256.87 13.79L256.897 13.7985L256.924 13.8075L256.951 13.8165L256.978 13.826L257.004 13.8355L257.031 13.8455L257.058 13.855L257.085 13.865L257.112 13.875L257.139 13.885L257.165 13.8955L257.192 13.9065L257.219 13.917L257.246 13.928L257.273 13.9395L257.3 13.9505L257.326 13.962L257.353 13.9735L257.38 13.9855L257.407 13.9975L257.433 14.0095L257.461 14.022L257.487 14.0345L257.514 14.047L257.541 14.0595L257.568 14.0725L257.594 14.0855L257.622 14.099L257.648 14.1125L257.675 14.126L257.702 14.1395L257.729 14.1535L257.755 14.167L257.783 14.1815L257.809 14.1955L257.836 14.21L257.863 14.2245L257.89 14.239V12.9615L257.863 12.9545L257.836 12.9475L257.809 12.9405L257.783 12.934L257.755 12.927L257.729 12.9205L257.702 12.914L257.675 12.9075L257.648 12.901L257.622 12.8945L257.594 12.888L257.568 12.882L257.541 12.876L257.514 12.8695L257.487 12.8635L257.461 12.8575L257.433 12.8515L257.407 12.846L257.38 12.84L257.353 12.834L257.326 12.8285L257.3 12.823L257.273 12.817L257.246 12.812L257.219 12.806L257.192 12.801L257.165 12.7955L257.139 12.79L257.112 12.785L257.085 12.78L257.058 12.7745L257.031 12.7695L257.004 12.7645L256.978 12.7595L256.951 12.7545L256.924 12.7495L256.897 12.7445L256.87 12.74L256.844 12.735L256.817 12.7305L256.79 12.726L256.763 12.7215L256.736 12.717L256.709 12.713L256.683 12.7085L256.656 12.7045L256.629 12.7L256.602 12.696L256.575 12.692L256.548 12.688L256.522 12.684L256.495 12.6805L256.468 12.6765L256.441 12.673L256.414 12.669L256.387 12.6655L256.361 12.662L256.334 12.6585L256.306 12.655L256.28 12.6515L256.253 12.6485L256.226 12.6455L256.199 12.642L256.173 12.6395L256.145 12.6365L256.119 12.6335L256.092 12.631L256.065 12.6285L256.038 12.6255L256.012 12.623L255.984 12.621L255.958 12.6185L255.931 12.6165L255.904 12.6145L255.877 12.6125L255.851 12.6105L255.824 12.6085L255.797 12.607L255.77 12.6055L255.743 12.604L255.716 12.6025L255.702 12.6015H255.69L255.663 12.6L255.636 12.5985L255.61 12.5975L255.583 12.5965L255.556 12.5955L255.529 12.5945L255.502 12.5935L255.475 12.5925L255.449 12.592L255.422 12.591H255.395L255.368 12.59L255.341 12.5895L255.315 12.589H255.288L255.261 12.588H255.019L254.993 12.5885L254.966 12.589L254.939 12.5895L254.912 12.59L254.886 12.591L254.858 12.5915L254.832 12.5925L254.805 12.5935L254.778 12.594L254.751 12.595L254.725 12.5965L254.697 12.5975L254.671 12.599L254.644 12.6L254.617 12.6015L254.59 12.603L254.564 12.6045L254.536 12.6065L254.51 12.608L254.483 12.61L254.456 12.612L254.429 12.614L254.403 12.616L254.376 12.6185L254.349 12.6205L254.322 12.623L254.295 12.6255L254.268 12.628L254.242 12.631L254.215 12.6335L254.188 12.6365L254.161 12.6395L254.134 12.6425L254.107 12.6455L254.081 12.649L254.054 12.6525L254.027 12.656L254 12.6595L253.973 12.663L253.946 12.667L253.92 12.671L253.893 12.675L253.866 12.679L253.839 12.6835L253.812 12.688L253.786 12.692L253.759 12.697L253.732 12.702L253.705 12.7065L253.678 12.7115L253.651 12.7165L253.625 12.7215L253.598 12.7275L253.571 12.7325L253.544 12.7385L253.517 12.744L253.49 12.75L253.464 12.756L253.437 12.7625L253.41 12.7685L253.383 12.775L253.356 12.782L253.329 12.7885L253.303 12.7955L253.276 12.8025L253.249 12.81L253.222 12.8175L253.195 12.825L253.168 12.833L253.142 12.8405L253.115 12.849L253.088 12.857L253.061 12.8655L253.034 12.874L253.007 12.883L252.981 12.892L252.954 12.9015L252.927 12.9105L252.9 12.9205L252.873 12.9305L252.847 12.9405L252.82 12.9505L252.793 12.961L252.766 12.9715L252.739 12.9825L252.712 12.9935L252.686 13.005L252.659 13.017L252.632 13.0285L252.605 13.041L252.578 13.0535L252.551 13.066L252.525 13.079L252.498 13.092L252.471 13.1055L252.444 13.1195L252.418 13.1335L252.39 13.148L252.364 13.163L252.337 13.178L252.31 13.193L252.283 13.209L252.257 13.225L252.229 13.2415L252.203 13.2585L252.176 13.276L252.149 13.2935L252.122 13.3115L252.096 13.33L252.068 13.349L252.042 13.3685L252.015 13.3885C251.997 13.402 251.979 13.4157 251.961 13.4295L251.935 13.451C251.907 13.4732 251.881 13.4958 251.854 13.519Z" fill="#E10238"/>
</g>
</g>
<defs>
<linearGradient id="paint0_linear_67_3394" x1="142.216" y1="15.4996" x2="139.652" y2="11.6105" gradientUnits="userSpaceOnUse">
<stop stop-color="#F89F20"/>
<stop offset="0.25" stop-color="#F79A20"/>
<stop offset="0.533" stop-color="#F68D20"/>
<stop offset="0.62" stop-color="#F58720"/>
<stop offset="0.723" stop-color="#F48120"/>
<stop offset="1" stop-color="#F37521"/>
</linearGradient>
<linearGradient id="paint1_linear_67_3394" x1="141.83" y1="15.4459" x2="138.061" y2="8.31141" gradientUnits="userSpaceOnUse">
<stop stop-color="#F58720"/>
<stop offset="0.359" stop-color="#E16F27"/>
<stop offset="0.703" stop-color="#D4602C"/>
<stop offset="0.982" stop-color="#D05B2E"/>
</linearGradient>
<clipPath id="clip0_67_3394">
<rect width="278" height="30" fill="white" transform="translate(0 0.155273)"/>
</clipPath>
<clipPath id="clip1_67_3394">
<rect width="278" height="30" fill="white" transform="translate(0 0.155273)"/>
</clipPath>
</defs>
</svg>
