<svg width="35" height="36" viewBox="0 0 35 36" fill="none" xmlns="http://www.w3.org/2000/svg">
<rect x="0.5" y="1.2959" width="34" height="34" rx="17" stroke="#8A8F9A"/>
<path d="M25.6562 13.7021C26.0312 15.0146 26.0312 17.8271 26.0312 17.8271C26.0312 17.8271 26.0312 20.6084 25.6562 21.9521C25.4688 22.7021 24.875 23.2646 24.1562 23.4521C22.8125 23.7959 17.5 23.7959 17.5 23.7959C17.5 23.7959 12.1562 23.7959 10.8125 23.4521C10.0938 23.2646 9.5 22.7021 9.3125 21.9521C8.9375 20.6084 8.9375 17.8271 8.9375 17.8271C8.9375 17.8271 8.9375 15.0146 9.3125 13.7021C9.5 12.9521 10.0938 12.3584 10.8125 12.1709C12.1562 11.7959 17.5 11.7959 17.5 11.7959C17.5 11.7959 22.8125 11.7959 24.1562 12.1709C24.875 12.3584 25.4688 12.9521 25.6562 13.7021ZM15.75 20.3584L20.1875 17.8271L15.75 15.2959V20.3584Z" fill="#8A8F9A"/>
<a href="https://www.figma.com/design/l2WFs4CzaVfr9bS6ZgzSZK/HERISTAYS?node-id=65-833">
<rect fill="black" fill-opacity="0" y="-1.2" width="18" height="18.4"/>
</a>
</svg>
